# xmcd
#
# Track frame offsets:
#	150
#	11224
#	36981
#	58598
#	85143
#	112225
#	142798
#	168232
#	176283
#	188951
#	203036
#	215645
#	244825
#	272319
#	294762
#	328966
#
# Disc length: 4699 seconds
#
# Revision: 1
# Processed by: cddbd v1.5.1PL0 Copyright (c) Steve Scherf et al.
# Submitted via: EasyCDDAExtractor 5.1.0
#
DISCID=e6125910
DTITLE=Black Sabbath - Helsinki 29-10-95 Disc 1
DYEAR=1995
DGENRE=Hip-Hop
TTITLE0=Ave Satani
TTITLE1=Children Of The Grave
TTITLE2=Neon Knights
TTITLE3=The Shining
TTITLE4=The Wizard
TTITLE5=Kiss Of Death
TTITLE6=Headless Cross
TTITLE7=Keyboard - Guitar Intro
TTITLE8=Rusty Angels I
TTITLE9=Rusty Angels II
TTITLE10=Intro
TTITLE11=When Death Calls
TTITLE12=Sabbath Bloody Sabbath
TTITLE13=Can't Get Close Enough
TTITLE14=War Pigs
TTITLE15=Bobby Rondinelli Drum Solo
EXTD=
EXTT0=
EXTT1=
EXTT2=
EXTT3=
EXTT4=
EXTT5=
EXTT6=
EXTT7=
EXTT8=
EXTT9=
EXTT10=
EXTT11=
EXTT12=
EXTT13=
EXTT14=
EXTT15=
PLAYORDER=
